#N canvas 67 23 896 713 10;
#X obj 15 20 inlet~;
#X obj 255 15 inlet;
#X obj 68 533 bob~;
#X obj 42 579 *~ 1;
#X obj 93 575 *~ 0;
#X obj 95 474 pack 0 50;
#X obj 95 500 line~;
#X floatatom 95 453 7 0 0 0 - - -, f 7;
#X obj 158 499 line~;
#X obj 95 432 mtof;
#X obj 158 472 / 25;
#X floatatom 396 388 5 0 999 0 saturation - -, f 5;
#X msg 82 160 saturation \$1;
#X obj 82 136 / 100;
#X floatatom 180 133 5 1 10 0 - - -, f 5;
#X msg 180 160 oversample \$1;
#X msg 180 106 2;
#X msg 82 89 300;
#X obj 118 60 loadbang;
#X msg 200 245 clear;
#X obj 373 370 bng 15 250 50 0 empty empty clear 17 7 0 10 -258113
-1 -1;
#X obj 159 430 / 127;
#X obj 41 633 outlet~;
#X obj 158 451 * 100;
#X obj 354 255 vsl 15 128 0 127 0 0 empty empty empty 0 -9 0 10 -191407
-258113 -1 0 1;
#X obj 335 255 vsl 15 128 0 4 0 0 empty empty empty 0 -9 0 10 -191407
-258113 -1 0 1;
#X obj 372 350 tgl 15 0 empty empty wet 17 7 0 10 -262144 -1 -1 0 1
;
#X obj 372 330 tgl 15 0 empty empty dry 17 7 0 10 -262144 -1 -1 0 1
;
#X obj 256 215 fader_unit;
#X obj 304 635 outlet;
#X connect 0 0 3 0;
#X connect 0 0 2 0;
#X connect 1 0 28 0;
#X connect 2 0 4 0;
#X connect 3 0 22 0;
#X connect 4 0 22 0;
#X connect 5 0 6 0;
#X connect 6 0 2 1;
#X connect 7 0 5 0;
#X connect 8 0 2 2;
#X connect 9 0 7 0;
#X connect 10 0 8 0;
#X connect 10 0 25 0;
#X connect 11 0 13 0;
#X connect 12 0 2 0;
#X connect 13 0 12 0;
#X connect 14 0 15 0;
#X connect 15 0 2 0;
#X connect 16 0 14 0;
#X connect 17 0 11 0;
#X connect 18 0 17 0;
#X connect 18 0 16 0;
#X connect 19 0 2 0;
#X connect 20 0 19 0;
#X connect 21 0 23 0;
#X connect 23 0 10 0;
#X connect 26 0 4 1;
#X connect 27 0 3 1;
#X connect 28 0 21 0;
#X connect 28 1 9 0;
#X connect 28 1 24 0;
#X connect 28 2 27 0;
#X connect 28 3 26 0;
#X connect 28 4 20 0;
#X connect 28 5 29 0;
#X coords 0 -1 1 1 210 210 1 250 200;
