#N canvas 0 23 1276 736 10;
#X obj 127 554 pitchshifter-;
#X msg 150 514 transpose \$1;
#X obj 176 404 snapshot~;
#X floatatom 183 425 5 0 0 0 - - -, f 5;
#X msg 107 385 bang;
#X obj 105 360 metro 100;
#X obj 113 317 loadbang;
#X msg 106 338 1;
#X obj 177 379 osc~ 1000;
#X obj 196 486 *;
#X obj 359 219 vsl 15 128 0 100 0 0 empty empty empty 0 -9 0 10 -262144
-1 -1 0 1;
#X obj 249 490 / 100;
#X obj 336 220 vsl 15 128 100 5000 0 0 empty empty empty 0 -9 0 10
-262144 -1 -1 0 1;
#X obj 29 106 inlet~;
#X obj 77 607 outlet~;
#X obj 255 217 fader_unit;
#X obj 252 416 / 127;
#X obj 252 442 * 5000;
#X obj 305 414 / 127;
#X obj 276 104 inlet;
#X obj 309 560 outlet;
#X obj 307 439 * 100;
#X connect 0 0 14 0;
#X connect 1 0 0 1;
#X connect 2 0 3 0;
#X connect 3 0 9 0;
#X connect 4 0 2 0;
#X connect 5 0 4 0;
#X connect 6 0 7 0;
#X connect 7 0 5 0;
#X connect 8 0 2 0;
#X connect 9 0 1 0;
#X connect 10 0 11 0;
#X connect 11 0 9 1;
#X connect 12 0 8 1;
#X connect 13 0 0 0;
#X connect 13 0 14 0;
#X connect 15 0 16 0;
#X connect 15 1 18 0;
#X connect 15 5 20 0;
#X connect 16 0 17 0;
#X connect 17 0 12 0;
#X connect 18 0 21 0;
#X connect 19 0 15 0;
#X connect 21 0 10 0;
#X coords 0 -1 1 1 210 210 1 250 200;
