#N canvas 442 40 587 683 10;
#X obj 108 472 tgl 20 0 empty empty S 5 10 0 10 -204800 -1 -1 0 1;
#X obj 107 515 tgl 20 0 empty empty M 5 10 0 10 -204786 -1 -1 0 1;
#X msg 143 201 0;
#X msg 176 201 16;
#X msg 209 201 32;
#X msg 243 200 48;
#X msg 279 200 64;
#X obj 143 229 +;
#X obj 176 229 +;
#X obj 210 228 +;
#X floatatom 262 130 5 0 0 0 - - -, f 5;
#X obj 243 228 +;
#X obj 279 228 +;
#X obj 107 558 tgl 20 0 empty empty R 5 10 0 10 -261234 -1 -1 0 1;
#X obj 136 454 vsl 20 128 0 127 0 0 empty empty empty 0 -9 0 10 -1
-228856 -1 0 1;
#X obj 65 609 outlet;
#X obj 15 609 outlet;
#X obj 116 609 outlet;
#X obj 166 608 outlet;
#X obj 218 608 outlet;
#X text 110 632 p o s m r;
#X text 29 5 for nanoKontroler midi fader;
#X obj 113 326 moses 1;
#X obj 113 357 bng 15 250 50 0 empty empty empty 17 7 0 10 -262144
-1 -1;
#X obj 165 324 moses 1;
#X obj 165 361 bng 15 250 50 0 empty empty empty 17 7 0 10 -262144
-1 -1;
#X obj 217 323 moses 1;
#X obj 217 360 bng 15 250 50 0 empty empty empty 17 7 0 10 -262144
-1 -1;
#X obj 175 38 inlet;
#X obj 27 32 ctlin;
#X obj 97 55 ==;
#X obj 64 79 spigot;
#X obj 31 270 ==;
#X obj 18 293 spigot;
#X obj 77 270 ==;
#X obj 64 293 spigot;
#X obj 126 270 ==;
#X obj 113 293 spigot;
#X obj 174 271 ==;
#X obj 161 294 spigot;
#X obj 220 272 ==;
#X obj 207 295 spigot;
#X obj 208 167 bang;
#X obj 335 371 outlet;
#X obj 332 198 + 1;
#X obj 110 449 tgl 15 0 empty empty empty 17 7 0 10 -262144 -1 -1 0
1;
#X text 227 6 inits with chan \, fadid \, bankid;
#X floatatom 388 109 5 0 0 0 - - -, f 5;
#X obj 294 98 ==;
#X text 382 132 should be hooked up to bank#;
#X obj 20 139 spigot;
#X obj 133 421 knob 25 25 0 127 0 0 empty empty empty 0 -8 0 8 3.45462e+06
1 3.45466e+06 0 1;
#X obj 175 60 unpack 0 0 0 0;
#X obj 334 291 pack 0 0 0 0;
#X connect 0 0 17 0;
#X connect 1 0 18 0;
#X connect 2 0 7 0;
#X connect 3 0 8 0;
#X connect 4 0 9 0;
#X connect 5 0 11 0;
#X connect 6 0 12 0;
#X connect 7 0 32 1;
#X connect 8 0 34 1;
#X connect 9 0 36 1;
#X connect 10 0 7 1;
#X connect 10 0 8 1;
#X connect 10 0 9 1;
#X connect 10 0 11 1;
#X connect 10 0 12 1;
#X connect 10 0 42 0;
#X connect 10 0 44 0;
#X connect 11 0 38 1;
#X connect 12 0 40 1;
#X connect 13 0 19 0;
#X connect 14 0 15 0;
#X connect 22 1 23 0;
#X connect 23 0 0 0;
#X connect 24 1 25 0;
#X connect 25 0 1 0;
#X connect 26 1 27 0;
#X connect 27 0 13 0;
#X connect 28 0 52 0;
#X connect 29 0 50 0;
#X connect 29 1 31 0;
#X connect 29 2 30 0;
#X connect 30 0 31 1;
#X connect 31 0 32 0;
#X connect 31 0 34 0;
#X connect 31 0 36 0;
#X connect 31 0 38 0;
#X connect 31 0 40 0;
#X connect 32 0 33 1;
#X connect 33 0 14 0;
#X connect 34 0 35 1;
#X connect 35 0 51 0;
#X connect 36 0 37 1;
#X connect 37 0 22 0;
#X connect 38 0 39 1;
#X connect 39 0 24 0;
#X connect 40 0 41 1;
#X connect 41 0 26 0;
#X connect 42 0 2 0;
#X connect 42 0 3 0;
#X connect 42 0 4 0;
#X connect 42 0 5 0;
#X connect 42 0 6 0;
#X connect 44 0 53 1;
#X connect 47 0 48 1;
#X connect 47 0 53 2;
#X connect 48 0 50 1;
#X connect 48 0 45 0;
#X connect 50 0 33 0;
#X connect 50 0 35 0;
#X connect 50 0 37 0;
#X connect 50 0 39 0;
#X connect 50 0 41 0;
#X connect 51 0 16 0;
#X connect 52 0 30 1;
#X connect 52 0 53 0;
#X connect 52 1 10 0;
#X connect 52 2 47 0;
#X connect 52 3 48 0;
#X connect 52 3 53 3;
#X connect 53 0 43 0;
#X coords 0 -1 1 1 70 190 1 100 400;
