#N canvas 265 98 830 645 10;
#X obj 51 579 dac~;
#X obj 53 251 tb_compressor~;
#X obj 149 251 tb_compressorUI;
#X msg 153 218 gain \$1;
#X obj 50 104 inlet~;
#X obj 508 399 tgl 20 0 empty empty Open 1 10 0 10 -204800 -1 -1 0
1;
#X obj 322 107 inlet;
#X obj 576 86 inlet;
#X obj 297 573 writesf~;
#X msg 551 492 start;
#X msg 600 491 stop;
#X obj 323 133 / 127;
#X obj 323 179 - 10;
#X obj 323 156 * 30;
#X obj 529 271 vu 15 120 empty empty -1 -8 0 10 -128992 -1 1 0;
#X obj 83 278 env~ 128;
#X obj 83 301 - 100;
#X obj 507 271 vsl 15 120 -10 20 0 0 empty empty empty 0 -9 0 10 -204786
-13381 -1 5341 1;
#X obj 374 432 savepanel;
#X msg 375 456 open -bytes 4 \$1;
#X msg 375 410 bang;
#X obj 581 399 tgl 20 0 empty empty R 5 10 0 10 -261234 -1 -1 0 1;
#X obj 547 404 tgl 15 0 empty empty empty 17 7 0 10 -204786 -45076
-1 0 1;
#X obj 550 439 spigot;
#X obj 366 512 print save to;
#X obj 415 485 bng 15 250 50 0 empty empty empty 17 7 0 10 -262144
-1 -1;
#X msg 554 525 print;
#X obj 549 465 select 0 1;
#X connect 1 0 0 0;
#X connect 1 0 0 1;
#X connect 1 0 8 0;
#X connect 1 0 15 0;
#X connect 1 1 2 0;
#X connect 2 0 1 1;
#X connect 3 0 1 1;
#X connect 4 0 1 0;
#X connect 5 0 20 0;
#X connect 6 0 11 0;
#X connect 7 0 21 0;
#X connect 9 0 8 0;
#X connect 9 0 26 0;
#X connect 10 0 8 0;
#X connect 10 0 26 0;
#X connect 11 0 13 0;
#X connect 12 0 17 0;
#X connect 13 0 12 0;
#X connect 15 0 16 0;
#X connect 16 0 14 0;
#X connect 17 0 3 0;
#X connect 18 0 19 0;
#X connect 19 0 8 0;
#X connect 19 0 24 0;
#X connect 19 0 25 0;
#X connect 20 0 18 0;
#X connect 21 0 23 0;
#X connect 22 0 23 1;
#X connect 23 0 27 0;
#X connect 25 0 22 0;
#X connect 26 0 8 0;
#X connect 27 0 10 0;
#X connect 27 1 9 0;
#X coords 0 -1 1 1 110 175 1 500 250;
