#N canvas 483 104 450 300 10;
#X obj 13 19 loadbang;
#X obj 28 264 outlet;
#X obj 58 97 selector;
#X msg 55 57 1;
#X obj 26 234 pack 0 0 0 0;
#X msg 11 204 1;
#X msg 50 207 0;
#X msg 87 208 0;
#X connect 0 0 3 0;
#X connect 0 0 5 0;
#X connect 0 0 6 0;
#X connect 0 0 7 0;
#X connect 2 0 4 3;
#X connect 3 0 2 0;
#X connect 4 0 1 0;
#X connect 5 0 4 0;
#X connect 6 0 4 1;
#X connect 7 0 4 2;
#X coords 0 -1 1 1 150 80 1 55 80;
