#N canvas 699 87 458 476 10;
#X obj 25 20 ctlin;
#X obj 95 193 float;
#X obj 91 286 + 1;
#X obj 63 285 - 1;
#X obj 61 244 route 58 59;
#X obj 60 217 pack;
#X floatatom 30 357 5 0 0 0 - - -, f 5;
#X obj 29 197 bng 15 250 50 0 empty empty empty 17 7 0 10 -262144 -1
-1;
#X obj 154 111 loadbang;
#X msg 154 135 0;
#X obj 30 377 hradio 15 1 0 8 empty empty empty 0 -8 0 10 -191407 -159808
-1 14;
#X obj 42 118 == 59;
#X obj 91 113 == 58;
#X obj 88 55 ==;
#X msg 150 38 1;
#X obj 74 84 spigot;
#X obj 23 139 spigot;
#X obj 81 138 spigot;
#X obj 28 170 moses 1;
#X obj 30 409 outlet;
#X obj 117 357 bng 15 250 50 0 empty empty empty 17 7 0 10 -191407
-45076 -1;
#X obj 134 357 bng 15 250 50 0 empty empty empty 17 7 0 10 -191407
-45076 -1;
#X obj 150 15 inlet;
#X connect 0 0 17 0;
#X connect 0 0 16 0;
#X connect 0 1 15 0;
#X connect 0 2 13 0;
#X connect 1 0 5 1;
#X connect 1 0 6 0;
#X connect 2 0 1 1;
#X connect 2 0 21 0;
#X connect 3 0 1 1;
#X connect 3 0 20 0;
#X connect 4 0 3 0;
#X connect 4 1 2 0;
#X connect 5 0 4 0;
#X connect 6 0 10 0;
#X connect 7 0 1 0;
#X connect 8 0 9 0;
#X connect 9 0 1 0;
#X connect 10 0 19 0;
#X connect 11 0 16 1;
#X connect 12 0 17 1;
#X connect 13 0 15 1;
#X connect 14 0 13 1;
#X connect 15 0 11 0;
#X connect 15 0 12 0;
#X connect 15 0 5 0;
#X connect 16 0 18 0;
#X connect 17 0 18 0;
#X connect 18 0 7 0;
#X connect 22 0 14 0;
#X coords 0 -1 1 1 130 60 1 25 340;
