#N canvas 393 53 715 589 10;
#X obj 57 75 inlet~;
#X obj 65 545 outlet~;
#X obj 100 190 rev1~;
#X obj 115 98 / 127;
#X obj 115 126 * 100;
#X obj 422 174 vsl 15 128 0 100 0 0 empty empty empty 20 5 0 10 -4032
-4160 -1 0 1;
#X obj 54 260 *~;
#X obj 461 246 tgl 15 0 empty empty dry 17 7 0 10 -262144 -1 -1 0 1
;
#X obj 152 339 tb_compressor~;
#X obj 252 339 tb_compressorUI;
#X msg 252 306 gain \$1;
#X obj 202 105 / 127;
#X obj 441 174 vsl 15 128 -10 20 0 0 empty empty empty 0 -9 0 10 -204786
-1 -1 0 1;
#X obj 207 141 * 30;
#X obj 207 168 - 10;
#X obj 461 268 tgl 15 0 empty empty mute 17 7 0 10 -261234 -258113
-1 0 1;
#X obj 115 410 *~;
#X obj 461 290 bng 15 250 50 0 empty empty clear 17 7 0 10 -258113
-1 -1;
#X obj 254 34 inlet;
#X obj 153 385 == 0;
#X obj 307 114 fader_unit;
#X obj 167 552 outlet;
#X connect 0 0 2 0;
#X connect 0 0 6 0;
#X connect 2 0 8 0;
#X connect 3 0 4 0;
#X connect 4 0 5 0;
#X connect 4 0 2 1;
#X connect 6 0 1 0;
#X connect 7 0 6 1;
#X connect 8 0 16 0;
#X connect 8 1 9 0;
#X connect 9 0 8 1;
#X connect 10 0 8 1;
#X connect 11 0 13 0;
#X connect 13 0 14 0;
#X connect 14 0 12 0;
#X connect 14 0 10 0;
#X connect 15 0 19 0;
#X connect 16 0 1 0;
#X connect 17 0 2 2;
#X connect 18 0 20 0;
#X connect 19 0 16 1;
#X connect 20 0 3 0;
#X connect 20 1 11 0;
#X connect 20 2 7 0;
#X connect 20 3 15 0;
#X connect 20 4 17 0;
#X connect 20 5 21 0;
#X coords 0 -1 1 1 210 210 1 300 100;
