#N canvas 113 23 994 755 10;
#X obj 10 5 root;
#X obj 11 90 input_unit;
#X obj 10 511 output_unit;
#X obj 11 296 verb_unit;
#X connect 0 0 1 0;
#X connect 1 0 3 0;
#X connect 1 2 3 1;
#X connect 3 0 2 0;
#X connect 3 1 2 1;
